<svg id="Layer_1" data-name="Layer 1" xmlns="http://www.w3.org/2000/svg" xmlns:xlink="http://www.w3.org/1999/xlink" viewBox="0 0 320 180"><defs><style>.cls-1{fill:none;}.cls-2{clip-path:url(#clip-path);}.cls-3{fill:#ec196e;}.cls-4{fill:#f9bd13;}.cls-5{fill:#ec228f;}.cls-6{fill:#ad2086;}.cls-7{fill:#88c045;}.cls-8{fill:#00adb5;}.cls-9{fill:#e31e28;}.cls-10{fill:#f3a21f;}</style><clipPath id="clip-path"><path class="cls-1" d="M-351-693H316.71A15.29,15.29,0,0,1,332-677.71v857a0,0,0,0,1,0,0H-351A15.29,15.29,0,0,1-366.24,164V-677.71A15.29,15.29,0,0,1-351-693Z"/></clipPath></defs><g class="cls-2"><rect class="cls-3" x="277.4" y="138.8" width="29.55" height="252.97" rx="13.72" transform="translate(686.35 246.27) rotate(135)"/><rect class="cls-4" x="221.16" y="82.56" width="29.55" height="252.97" rx="13.72" transform="translate(550.59 190.03) rotate(135)"/><rect class="cls-5" x="99.56" y="74.37" width="24.45" height="209.37" rx="12.23" transform="translate(317.44 226.62) rotate(135)"/><rect class="cls-6" x="86.75" y="24.89" width="24.45" height="209.37" rx="12.23" transform="translate(260.58 151.21) rotate(135)"/><rect class="cls-7" x="136.23" y="74.37" width="24.45" height="209.37" rx="12.23" transform="translate(380.04 200.69) rotate(135)"/><rect class="cls-8" x="81.69" y="-16.35" width="24.45" height="209.37" rx="12.23" transform="translate(222.8 84.39) rotate(135)"/><rect class="cls-9" x="124.47" y="26.44" width="24.45" height="209.37" rx="12.23" transform="translate(326.08 127.17) rotate(135)"/><rect class="cls-5" x="190.06" y="91.06" width="24.45" height="209.37" rx="12.23" transform="translate(483.74 191.12) rotate(135)"/><rect class="cls-10" x="163.73" y="29" width="24.45" height="209.37" rx="12.23" transform="translate(394.91 103.79) rotate(135)"/><rect class="cls-6" x="176.19" y="4.32" width="24.45" height="209.37" rx="12.23" transform="translate(398.72 52.85) rotate(135)"/><rect class="cls-9" x="265.75" y="56.74" width="24.45" height="209.37" rx="12.23" transform="translate(588.68 79.01) rotate(135)"/><rect class="cls-8" x="171.55" y="42.4" width="24.45" height="49.65" rx="12.23" transform="translate(361.27 -15.19) rotate(135)"/><rect class="cls-5" x="285.03" y="76.01" width="24.45" height="209.37" rx="12.23" transform="translate(635.22 98.28) rotate(135)"/><rect class="cls-7" x="220.38" y="48.51" width="24.45" height="209.37" rx="12.23" transform="translate(505.42 97.04) rotate(135)"/></g></svg>