<?xml version="1.0" encoding="utf-8"?>
<!-- Generator: Adobe Illustrator 24.3.0, SVG Export Plug-In . SVG Version: 6.00 Build 0)  -->
<svg version="1.1" id="Layer_1" xmlns="http://www.w3.org/2000/svg" xmlns:xlink="http://www.w3.org/1999/xlink" x="0px" y="0px"
	 viewBox="0 0 988 735" style="enable-background:new 0 0 988 735;" xml:space="preserve">
<style type="text/css">
	.st0{fill:#EC228F;}
	.st1{fill:#AD2086;}
	.st2{fill:#88C045;}
	.st3{fill:#00ADB5;}
	.st4{fill:#E31E28;}
	.st5{fill:#EC196E;}
	.st6{fill:#F9BD13;}
	.st7{fill:#F3A21F;}
</style>
<g>
	<path class="st0" d="M110.8,258.7L110.8,258.7c11.8-11.8,31-11.8,42.8,0l323.8,323.8c11.8,11.8,11.8,31,0,42.8h0
		c-11.8,11.8-31,11.8-42.8,0L110.8,301.5C99,289.7,99,270.5,110.8,258.7z"/>
	<path class="st1" d="M79.1,136.2L79.1,136.2c11.8-11.8,31-11.8,42.8,0l323.8,323.8c11.8,11.8,11.8,31,0,42.8l0,0
		c-11.8,11.8-31,11.8-42.8,0L79.1,179C67.3,167.1,67.3,148,79.1,136.2z"/>
	<path class="st2" d="M201.6,258.7L201.6,258.7c11.8-11.8,31-11.8,42.8,0l323.8,323.8c11.8,11.8,11.8,31,0,42.8h0
		c-11.8,11.8-31,11.8-42.8,0L201.6,301.5C189.8,289.7,189.8,270.5,201.6,258.7z"/>
	<path class="st3" d="M66.6,34.1L66.6,34.1c11.8-11.8,31-11.8,42.8,0l323.8,323.8c11.8,11.8,11.8,31,0,42.8l0,0
		c-11.8,11.8-31,11.8-42.8,0L66.6,76.9C54.8,65.1,54.8,45.9,66.6,34.1z"/>
	<path class="st4" d="M172.5,140L172.5,140c11.8-11.8,31-11.8,42.8,0l323.8,323.8c11.8,11.8,11.8,31,0,42.8l0,0
		c-11.8,11.8-31,11.8-42.8,0L172.5,182.8C160.7,171,160.7,151.8,172.5,140z"/>
	<path class="st0" d="M334.9,300L334.9,300c11.8-11.8,31-11.8,42.8,0l323.8,323.8c11.8,11.8,11.8,31,0,42.8l0,0
		c-11.8,11.8-31,11.8-42.8,0L334.9,342.8C323.1,331,323.1,311.8,334.9,300z"/>
	<path class="st5" d="M459.5,336.1L459.5,336.1c11.8-11.8,31-11.8,42.8,0l323.8,323.8c11.8,11.8,11.8,31,0,42.8l0,0
		c-11.8,11.8-31,11.8-42.8,0L459.5,378.9C447.6,367.1,447.6,347.9,459.5,336.1z"/>
	<path class="st6" d="M344.2,220.8L344.2,220.8c11.8-11.8,31-11.8,42.8,0l323.8,323.8c11.8,11.8,11.8,31,0,42.8h0
		c-11.8,11.8-31,11.8-42.8,0L344.2,263.7C332.4,251.8,332.4,232.7,344.2,220.8z"/>
	<path class="st7" d="M269.7,146.3L269.7,146.3c11.8-11.8,31-11.8,42.8,0l323.8,323.8c11.8,11.8,11.8,31,0,42.8h0
		c-11.8,11.8-31,11.8-42.8,0L269.7,189.2C257.9,177.3,257.9,158.2,269.7,146.3z"/>
	<path class="st1" d="M300.6,85.2L300.6,85.2c11.8-11.8,31-11.8,42.8,0L667.2,409c11.8,11.8,11.8,31,0,42.8l0,0
		c-11.8,11.8-31,11.8-42.8,0L300.6,128C288.7,116.2,288.7,97,300.6,85.2z"/>
	<path class="st4" d="M522.3,215L522.3,215c11.8-11.8,31-11.8,42.8,0l323.8,323.8c11.8,11.8,11.8,31,0,42.8h0
		c-11.8,11.8-31,11.8-42.8,0L522.3,257.8C510.5,246,510.5,226.8,522.3,215z"/>
	<path class="st3" d="M428.9,121.6L428.9,121.6c11.8-11.8,31-11.8,42.8,0l44.1,44.1c11.8,11.8,11.8,31,0,42.8l0,0
		c-11.8,11.8-31,11.8-42.8,0l-44.1-44.1C417.1,152.6,417.1,133.4,428.9,121.6z"/>
	<path class="st0" d="M570.1,262.7L570.1,262.7c11.8-11.8,31-11.8,42.8,0l323.8,323.8c11.8,11.8,11.8,31,0,42.8v0
		c-11.8,11.8-31,11.8-42.8,0L570.1,305.6C558.2,293.7,558.2,274.6,570.1,262.7z"/>
	<path class="st2" d="M410,194.6L410,194.6c11.8-11.8,31-11.8,42.8,0l323.8,323.8c11.8,11.8,11.8,31,0,42.8l0,0
		c-11.8,11.8-31,11.8-42.8,0L410,237.5C398.2,225.6,398.2,206.5,410,194.6z"/>
</g>
</svg>
