<svg id="Layer_1" data-name="Layer 1" xmlns="http://www.w3.org/2000/svg" xmlns:xlink="http://www.w3.org/1999/xlink" viewBox="0 0 315 183"><defs><style>.cls-1{fill:none;}.cls-2{clip-path:url(#clip-path);}.cls-3{fill:#ec228f;}.cls-4{fill:#ad2086;}.cls-5{fill:#88c045;}.cls-6{fill:#00adb5;}.cls-7{fill:#e31e28;}.cls-8{fill:#ec196e;}.cls-9{fill:#f9bd13;}.cls-10{fill:#f3a21f;}</style><clipPath id="clip-path"><rect class="cls-1" x="-315" y="-627" width="630" height="810"/></clipPath></defs><g class="cls-2"><rect class="cls-3" x="124.7" y="110.32" width="27.44" height="234.91" rx="13.72" transform="translate(397.36 290.96) rotate(135)"/><rect class="cls-4" x="110.33" y="54.81" width="27.44" height="234.91" rx="13.72" transform="translate(333.57 206.35) rotate(135)"/><rect class="cls-5" x="165.84" y="110.32" width="27.44" height="234.91" rx="13.72" transform="translate(467.6 261.87) rotate(135)"/><rect class="cls-6" x="104.66" y="8.55" width="27.44" height="234.91" rx="13.72" transform="translate(291.18 131.39) rotate(135)"/><rect class="cls-7" x="152.66" y="56.55" width="27.44" height="234.91" rx="13.72" transform="translate(407.06 179.39) rotate(135)"/><rect class="cls-3" x="226.24" y="129.05" width="27.44" height="234.91" rx="13.72" transform="translate(583.94 251.13) rotate(135)"/><rect class="cls-8" x="282.68" y="145.4" width="27.44" height="234.91" rx="13.72" transform="translate(691.85 239.14) rotate(135)"/><rect class="cls-9" x="230.46" y="93.18" width="27.44" height="234.91" rx="13.72" transform="translate(565.78 186.92) rotate(135)"/><rect class="cls-10" x="196.7" y="59.42" width="27.44" height="234.91" rx="13.72" transform="translate(484.28 153.16) rotate(135)"/><rect class="cls-4" x="210.68" y="31.73" width="27.44" height="234.91" rx="13.72" transform="translate(488.56 96) rotate(135)"/><rect class="cls-7" x="311.16" y="90.54" width="27.44" height="234.91" rx="13.72" transform="translate(701.68 125.35) rotate(135)"/><rect class="cls-6" x="205.48" y="74.46" width="27.44" height="55.71" rx="13.72" transform="translate(446.54 19.66) rotate(135)"/><rect class="cls-3" x="332.79" y="112.17" width="27.44" height="234.91" rx="13.72" transform="translate(753.89 146.97) rotate(135)"/><rect class="cls-5" x="260.26" y="81.31" width="27.44" height="234.91" rx="13.72" transform="translate(608.26 145.58) rotate(135)"/></g></svg>