<svg id="Layer_1" data-name="Layer 1" xmlns="http://www.w3.org/2000/svg" xmlns:xlink="http://www.w3.org/1999/xlink" viewBox="0 0 281 149"><defs><style>.cls-1{fill:none;}.cls-2{clip-path:url(#clip-path);}.cls-3{fill:#ec228f;}.cls-4{fill:#ad2086;}.cls-5{fill:#88c045;}.cls-6{fill:#00adb5;}.cls-7{fill:#e31e28;}.cls-8{fill:#ec196e;}.cls-9{fill:#f9bd13;}.cls-10{fill:#f3a21f;}</style><clipPath id="clip-path"><rect class="cls-1" x="-264.24" y="-552" width="545.17" height="700.93"/></clipPath></defs><g class="cls-2"><rect class="cls-3" x="92.79" y="74.62" width="21.95" height="187.94" rx="10.98" transform="translate(296.36 214.42) rotate(135)"/><rect class="cls-4" x="85.3" y="30.2" width="21.95" height="187.94" rx="10.98" transform="translate(252.15 143.9) rotate(135)"/><rect class="cls-5" x="129.71" y="74.62" width="21.95" height="187.94" rx="10.98" transform="translate(359.38 188.32) rotate(135)"/><rect class="cls-6" x="84.76" y="-6.81" width="21.95" height="187.94" rx="10.98" transform="translate(225.06 81.1) rotate(135)"/><rect class="cls-7" x="123.16" y="31.59" width="21.95" height="187.94" rx="10.98" transform="translate(317.77 119.5) rotate(135)"/><rect class="cls-3" x="182.03" y="89.6" width="21.95" height="187.94" rx="8.38" transform="translate(459.29 176.89) rotate(135)"/><rect class="cls-8" x="232.19" y="102.68" width="21.95" height="187.94" rx="8.38" transform="translate(554.16 163.76) rotate(135)"/><rect class="cls-9" x="190.41" y="60.9" width="21.95" height="187.94" rx="8.38" transform="translate(453.29 121.98) rotate(135)"/><rect class="cls-10" x="163.4" y="33.89" width="21.95" height="187.94" rx="10.98" transform="translate(388.09 94.97) rotate(135)"/><rect class="cls-4" x="179.58" y="11.74" width="21.95" height="187.94" rx="10.98" transform="translate(400.05 45.71) rotate(135)"/><path class="cls-7" d="M277,58.79h0a11,11,0,0,1,11,11V235.94a10.8,10.8,0,0,1-10.8,10.8H277a11,11,0,0,1-11-11v-166a11,11,0,0,1,11-11Z" transform="translate(580.8 64.95) rotate(135)"/><rect class="cls-6" x="181.42" y="45.92" width="21.95" height="44.57" rx="10.98" transform="translate(376.67 -19.61) rotate(135)"/><rect class="cls-3" x="283.28" y="76.09" width="21.95" height="187.94" rx="10.98" transform="translate(622.58 82.25) rotate(135)"/><rect class="cls-5" x="219.25" y="51.41" width="21.95" height="187.94" rx="10.98" transform="translate(495.82 85.38) rotate(135)"/></g></svg>