<svg id="Layer_1" data-name="Layer 1" xmlns="http://www.w3.org/2000/svg" xmlns:xlink="http://www.w3.org/1999/xlink" viewBox="0 0 351 234"><defs><style>.cls-1{fill:none;}.cls-2{clip-path:url(#clip-path);}.cls-3{fill:#ec196e;}.cls-4{fill:#f9bd13;}.cls-5{fill:#ec228f;}.cls-6{fill:#ad2086;}.cls-7{fill:#88c045;}.cls-8{fill:#00adb5;}.cls-9{fill:#e31e28;}.cls-10{fill:#f3a21f;}</style><clipPath id="clip-path"><rect class="cls-1" x="-367.21" y="-690.34" width="718.38" height="923.63"/></clipPath></defs><g class="cls-2"><rect class="cls-3" x="314.32" y="190.41" width="31.29" height="267.86" rx="13.72" transform="translate(792.62 320.37) rotate(135)"/><rect class="cls-4" x="254.77" y="130.87" width="31.29" height="267.86" rx="13.72" transform="translate(648.86 260.83) rotate(135)"/><rect class="cls-5" x="118.18" y="99.42" width="31.29" height="267.86" rx="13.72" transform="translate(393.44 303.72) rotate(135)"/><rect class="cls-6" x="101.79" y="36.11" width="31.29" height="267.86" rx="13.72" transform="translate(320.7 207.24) rotate(135)"/><rect class="cls-7" x="165.09" y="99.42" width="31.29" height="267.86" rx="13.72" transform="translate(473.53 270.55) rotate(135)"/><rect class="cls-8" x="95.32" y="-16.64" width="31.29" height="267.86" rx="13.72" transform="translate(272.36 121.76) rotate(135)"/><rect class="cls-9" x="150.05" y="38.09" width="31.29" height="267.86" rx="13.72" transform="translate(404.5 176.5) rotate(135)"/><rect class="cls-5" x="233.96" y="120.77" width="31.29" height="267.86" rx="13.72" transform="translate(606.19 258.3) rotate(135)"/><rect class="cls-10" x="200.28" y="41.37" width="31.29" height="267.86" rx="13.72" transform="translate(492.56 146.58) rotate(135)"/><rect class="cls-6" x="216.21" y="9.8" width="31.29" height="267.86" rx="13.72" transform="translate(497.44 81.41) rotate(135)"/><rect class="cls-9" x="330.79" y="76.86" width="31.29" height="267.86" rx="13.72" transform="translate(740.46 114.87) rotate(135)"/><rect class="cls-8" x="210.28" y="58.52" width="31.29" height="63.52" rx="13.72" transform="translate(449.52 -5.64) rotate(135)"/><rect class="cls-5" x="355.45" y="101.52" width="31.29" height="267.86" rx="13.72" transform="translate(799.99 139.53) rotate(135)"/><rect class="cls-7" x="272.75" y="66.33" width="31.29" height="267.86" rx="13.72" transform="translate(633.93 137.95) rotate(135)"/></g></svg>