<?xml version="1.0" encoding="utf-8"?>
<!-- Generator: Adobe Illustrator 24.3.0, SVG Export Plug-In . SVG Version: 6.00 Build 0)  -->
<svg version="1.1" xmlns="http://www.w3.org/2000/svg" xmlns:xlink="http://www.w3.org/1999/xlink" x="0px" y="0px"
	 viewBox="0 0 48 48" style="enable-background:new 0 0 48 48;" xml:space="preserve">
<style type="text/css">
	.st0{fill:#E31E28;}
</style>
<g id="Layer_1">
</g>
<g id="Layer_2">
	<g>
		<path class="st0" d="M45.1,25.1l-4.4-0.6c-0.2,0-0.3-0.1-0.4-0.3l-2-4c-0.3-0.7-1-1.1-1.8-1.1c0,0,0,0,0,0c-0.8,0-1.5,0.4-1.8,1.1
			l-0.5,1c-1.4-2.8-4-4.9-7-5.8c1.5-1,2.5-2.7,2.5-4.7C29.7,7.5,27.1,5,24,5c-3.1,0-5.7,2.5-5.7,5.7c0,1.9,1,3.6,2.5,4.7
			c-3,0.9-5.5,2.9-7,5.8l-0.5-1c-0.3-0.7-1-1.1-1.8-1.1s-1.5,0.4-1.8,1.1l-2,4c-0.1,0.2-0.2,0.3-0.4,0.3l-4.5,0.6
			c-0.8,0.1-1.4,0.6-1.6,1.4c-0.2,0.7,0,1.5,0.5,2.1L5,31.6c0.1,0.1,0.2,0.3,0.2,0.5l-0.8,4.4c-0.1,0.8,0.2,1.5,0.8,2
			C5.8,39,6.6,39,7.3,38.7l4-2.1c0.2-0.1,0.4-0.1,0.5,0l4,2.1c0.1,0.1,0.2,0.1,0.3,0.1l-0.3,1.6c-0.1,0.8,0.2,1.7,0.9,2.2
			c0.4,0.3,0.8,0.4,1.3,0.4c0.4,0,0.7-0.1,1-0.3l4.6-2.4c0.2-0.1,0.5-0.1,0.7,0l4.6,2.4c0.8,0.4,1.6,0.3,2.3-0.2
			c0.7-0.5,1-1.3,0.9-2.2l-0.3-1.6c0.1,0,0.2-0.1,0.3-0.1l4-2.1c0.2-0.1,0.4-0.1,0.5,0l4,2.1c0.7,0.4,1.5,0.3,2.1-0.2
			c0.6-0.5,0.9-1.2,0.8-2l-0.8-4.4c0-0.2,0-0.4,0.2-0.5l3.2-3.1c0.6-0.5,0.7-1.3,0.5-2.1C46.5,25.7,45.9,25.2,45.1,25.1z M19.8,10.6
			c0-2.3,1.9-4.2,4.2-4.2c2.3,0,4.2,1.9,4.2,4.2c0,2.3-1.9,4.2-4.2,4.2C21.7,14.8,19.8,13,19.8,10.6z M24,16.3
			c4.2,0,7.9,2.6,9.3,6.5l-0.6,1.3c-0.1,0.2-0.2,0.3-0.4,0.3l-4.4,0.6L26,21.4c-0.4-0.8-1.1-1.2-2-1.2c-0.9,0-1.6,0.5-2,1.2
			l-1.8,3.7l-4.4-0.6c-0.2,0-0.3-0.1-0.4-0.3l-0.7-1.3C16.1,18.9,19.8,16.3,24,16.3z M16.7,35.3l-0.4,2l-3.9-2
			c-0.6-0.3-1.3-0.3-1.9,0l-4,2.1c-0.3,0.1-0.5,0-0.6,0c-0.1-0.1-0.3-0.2-0.2-0.5l0.8-4.4c0.1-0.7-0.1-1.3-0.6-1.8l-3.2-3.1
			c-0.2-0.2-0.2-0.5-0.1-0.6c0-0.1,0.1-0.3,0.4-0.4l4.5-0.6c0.7-0.1,1.2-0.5,1.5-1.1l2-4c0.1-0.3,0.4-0.3,0.5-0.3
			c0.1,0,0.4,0,0.5,0.3l2,4c0.3,0.6,0.9,1,1.5,1.1l3.8,0.5c-0.1,0-0.1,0-0.2,0L14,27.2c-0.8,0.1-1.5,0.7-1.8,1.5
			c-0.3,0.8,0,1.7,0.6,2.3l3.7,3.6C16.7,34.8,16.7,35,16.7,35.3z M30.4,41.4c-0.2,0.2-0.5,0.2-0.8,0.1L25,39c-0.3-0.2-0.7-0.3-1-0.3
			c-0.4,0-0.7,0.1-1,0.3l-4.6,2.4c-0.3,0.1-0.6,0.1-0.8-0.1c-0.2-0.2-0.4-0.4-0.3-0.7l0.9-5.1c0.1-0.7-0.1-1.5-0.6-2l-3.7-3.6
			c-0.2-0.2-0.3-0.5-0.2-0.8c0.1-0.3,0.3-0.5,0.6-0.5l5.2-0.7c0.7-0.1,1.3-0.6,1.7-1.2l2.3-4.7c0.1-0.3,0.4-0.4,0.7-0.4
			c0.3,0,0.5,0.2,0.7,0.4l2.3,4.7c0.3,0.7,0.9,1.1,1.7,1.2l5.2,0.7c0.3,0,0.5,0.2,0.6,0.5c0.1,0.3,0,0.6-0.2,0.8l-3.7,3.6
			c-0.5,0.5-0.8,1.2-0.6,2l0.9,5.1C30.8,41,30.7,41.2,30.4,41.4z M45.2,27.5L42,30.6c-0.5,0.5-0.7,1.1-0.6,1.8l0.8,4.4
			c0.1,0.3-0.1,0.5-0.2,0.5c-0.1,0.1-0.3,0.2-0.6,0l-4-2.1c-0.6-0.3-1.3-0.3-1.9,0l-3.9,2l-0.4-2c0-0.2,0-0.5,0.2-0.7l3.7-3.6
			c0.6-0.6,0.8-1.5,0.6-2.3c-0.3-0.8-0.9-1.4-1.8-1.5l-5.2-0.7c-0.1,0-0.1,0-0.2,0l3.8-0.5c0.7-0.1,1.2-0.5,1.5-1.1l2-4
			c0.1-0.3,0.4-0.3,0.5-0.3h0c0.1,0,0.4,0,0.5,0.3l2,4c0.3,0.6,0.9,1,1.5,1.1l4.4,0.6c0.3,0,0.4,0.3,0.4,0.4
			C45.4,27,45.4,27.2,45.2,27.5z"/>
	</g>
</g>
<g id="Layer_3">
</g>
<g id="Layer_4">
</g>
<g id="Layer_5">
</g>
<g id="Layer_6">
</g>
<g id="Layer_7">
</g>
<g id="Layer_8">
</g>
<g id="Layer_9">
</g>
<g id="Layer_10">
</g>
<g id="Layer_11">
</g>
<g id="Layer_12">
</g>
<g id="Layer_13">
</g>
<g id="Layer_14">
</g>
<g id="Layer_15">
</g>
<g id="Layer_16">
</g>
<g id="Layer_17">
</g>
</svg>
