<svg id="Layer_1" data-name="Layer 1" xmlns="http://www.w3.org/2000/svg" xmlns:xlink="http://www.w3.org/1999/xlink" viewBox="0 0 211 497"><defs><style>.cls-1{fill:none;}.cls-2{clip-path:url(#clip-path);}.cls-3{fill:#ec228f;}.cls-4{fill:#e31e28;}.cls-5{fill:#00adb5;}.cls-6{fill:#88c045;}.cls-7{fill:#ad2086;}.cls-8{fill:#f3a21f;}</style><clipPath id="clip-path"><rect class="cls-1" x="0.01" y="-490.04" width="770.05" height="990.07"/></clipPath></defs><g class="cls-2"><rect class="cls-3" x="-23.14" y="243.96" width="32.1" height="275.98" rx="16.05" transform="translate(257.96 657.04) rotate(135)"/><rect class="cls-4" x="-20.71" y="191.32" width="32.1" height="275.98" rx="16.05" transform="translate(224.9 565.47) rotate(135)"/><rect class="cls-5" x="-21.97" y="141.89" width="32.1" height="275.98" rx="16.05" transform="translate(187.78 481.97) rotate(135)"/><rect class="cls-6" x="-28.83" y="82.97" width="32.1" height="275.98" rx="16.05" transform="translate(134.43 386.24) rotate(135)"/><rect class="cls-7" x="-5" y="55.89" width="32.1" height="275.98" rx="16.05" transform="translate(155.95 323.17) rotate(135)"/><rect class="cls-8" x="-11.85" y="0.23" width="32.1" height="275.98" rx="16.05" transform="translate(104.9 232.98) rotate(135)"/><rect class="cls-3" x="-29.15" y="-63.81" width="32.1" height="275.98" rx="16.05" transform="translate(30.09 135.89) rotate(135)"/><rect class="cls-4" x="-39.78" y="-121.03" width="32.1" height="275.98" rx="16.05" transform="translate(-28.53 45.73) rotate(135)"/></g></svg>