<?xml version="1.0" encoding="utf-8"?>
<!-- Generator: Adobe Illustrator 24.3.0, SVG Export Plug-In . SVG Version: 6.00 Build 0)  -->
<svg version="1.1" id="Layer_1" xmlns="http://www.w3.org/2000/svg" xmlns:xlink="http://www.w3.org/1999/xlink" x="0px" y="0px"
	 viewBox="0 0 533 950" style="enable-background:new 0 0 533 950;" xml:space="preserve">
<style type="text/css">
	.st0{fill:#EC228F;}
	.st1{fill:#E31E28;}
	.st2{fill:#00ADB5;}
	.st3{fill:#88C045;}
	.st4{fill:#AD2086;}
	.st5{fill:#F3A21F;}
</style>
<g>
	<path class="st0" d="M117,619.6L117,619.6c9.9-9.9,26.1-9.9,36,0L425.4,892c9.9,9.9,9.9,26.1,0,36h0c-9.9,9.9-26.1,9.9-36,0
		L117,655.6C107.1,645.7,107.1,629.6,117,619.6z"/>
	<path class="st1" d="M121.1,536.3L121.1,536.3c9.9-9.9,26.1-9.9,36,0l272.4,272.4c9.9,9.9,9.9,26.1,0,36l0,0
		c-9.9,9.9-26.1,9.9-36,0L121.1,572.3C111.1,562.3,111.1,546.2,121.1,536.3z"/>
	<path class="st2" d="M119.2,458L119.2,458c9.9-9.9,26.1-9.9,36,0l272.4,272.4c9.9,9.9,9.9,26.1,0,36l0,0c-9.9,9.9-26.1,9.9-36,0
		L119.2,494C109.3,484,109.3,467.9,119.2,458z"/>
	<path class="st3" d="M108.6,364.7L108.6,364.7c9.9-9.9,26.1-9.9,36,0L417,637.1c9.9,9.9,9.9,26.1,0,36l0,0c-9.9,9.9-26.1,9.9-36,0
		L108.6,400.7C98.6,390.8,98.6,374.6,108.6,364.7z"/>
	<path class="st4" d="M146.4,321.7L146.4,321.7c9.9-9.9,26.1-9.9,36,0l272.4,272.4c9.9,9.9,9.9,26.1,0,36l0,0
		c-9.9,9.9-26.1,9.9-36,0L146.4,357.7C136.4,347.8,136.4,331.7,146.4,321.7z"/>
	<path class="st5" d="M135.7,233.6L135.7,233.6c9.9-9.9,26.1-9.9,36,0l272.4,272.4c9.9,9.9,9.9,26.1,0,36l0,0
		c-9.9,9.9-26.1,9.9-36,0L135.7,269.6C125.8,259.6,125.8,243.5,135.7,233.6z"/>
	<path class="st0" d="M108.6,132.2L108.6,132.2c9.9-9.9,26.1-9.9,36,0L417,404.6c9.9,9.9,9.9,26.1,0,36l0,0c-9.9,9.9-26.1,9.9-36,0
		L108.6,168.2C98.6,158.3,98.6,142.1,108.6,132.2z"/>
	<path class="st1" d="M91.9,41.6L91.9,41.6c9.9-9.9,26.1-9.9,36,0L400.3,314c9.9,9.9,9.9,26.1,0,36l0,0c-9.9,9.9-26.1,9.9-36,0
		L91.9,77.6C82,67.7,82,51.6,91.9,41.6z"/>
</g>
</svg>
