<?xml version="1.0" encoding="utf-8"?>
<!-- Generator: Adobe Illustrator 24.3.0, SVG Export Plug-In . SVG Version: 6.00 Build 0)  -->
<svg version="1.1" id="Layer_1" xmlns="http://www.w3.org/2000/svg" xmlns:xlink="http://www.w3.org/1999/xlink" x="0px" y="0px"
	 viewBox="0 0 1301 1618" style="enable-background:new 0 0 1301 1618;" xml:space="preserve">
<style type="text/css">
	.st0{opacity:0.39;fill:#F1F1F1;}
	.st1{opacity:0.59;fill:#F1F1F1;}
</style>
<g>
	<path class="st0" d="M1062.8,1151.1L1062.8,1151.1c-83.8,75.3-212.8,68.4-288.1-15.4L100.3,385.3C25,301.5,31.8,172.5,115.6,97.2
		l0,0c83.8-75.3,212.8-68.4,288.1,15.4L1078.1,863C1153.4,946.8,1146.5,1075.8,1062.8,1151.1z"/>
	<path class="st1" d="M1199.4,1539.8L1199.4,1539.8c-58.2,56.3-150.9,54.8-207.2-3.4l-550-568.3c-56.3-58.2-54.8-150.9,3.4-207.2
		l0,0c58.2-56.3,150.9-54.8,207.2,3.4l550,568.3C1259,1390.8,1257.5,1483.5,1199.4,1539.8z"/>
</g>
</svg>
