<?xml version="1.0" encoding="utf-8"?>
<!-- Generator: Adobe Illustrator 24.3.0, SVG Export Plug-In . SVG Version: 6.00 Build 0)  -->
<svg version="1.1" id="Layer_1" xmlns="http://www.w3.org/2000/svg" xmlns:xlink="http://www.w3.org/1999/xlink" x="0px" y="0px"
	 viewBox="0 0 211 497" style="enable-background:new 0 0 211 497;" xml:space="preserve">
<style type="text/css">
	.st0{clip-path:url(#SVGID_2_);}
	.st1{fill:#E31E28;}
	.st2{fill:#EC228F;}
	.st3{fill:#F3A21F;}
	.st4{fill:#AD2086;}
	.st5{fill:#88C045;}
	.st6{fill:#00ADB5;}
</style>
<g>
	<defs>
		<rect id="SVGID_1_" x="-508" y="-33" width="719" height="924.4"/>
	</defs>
	<clipPath id="SVGID_2_">
		<use xlink:href="#SVGID_1_"  style="overflow:visible;"/>
	</clipPath>
	<g class="st0">
		<path class="st1" d="M287.1,289.1L287.1,289.1c-6.1-6.1-16-6.1-22.1,0L97.5,456.5c-6.1,6.1-6.1,16,0,22.1l0,0
			c6.1,6.1,16,6.1,22.1,0l167.4-167.4C293.2,305.1,293.2,295.2,287.1,289.1z"/>
		<path class="st2" d="M284.6,237.8L284.6,237.8c-6.1-6.1-16-6.1-22.1,0L95.1,405.2c-6.1,6.1-6.1,16,0,22.1h0c6.1,6.1,16,6.1,22.1,0
			L284.6,260C290.7,253.8,290.7,243.9,284.6,237.8z"/>
		<path class="st3" d="M285.8,189.7L285.8,189.7c-6.1-6.1-16-6.1-22.1,0L96.2,357.1c-6.1,6.1-6.1,16,0,22.1h0c6.1,6.1,16,6.1,22.1,0
			l167.4-167.4C291.9,205.7,291.9,195.8,285.8,189.7z"/>
		<path class="st4" d="M292.3,132.3L292.3,132.3c-6.1-6.1-16-6.1-22.1,0L102.7,299.8c-6.1,6.1-6.1,16,0,22.1l0,0
			c6.1,6.1,16,6.1,22.1,0l167.4-167.4C298.4,148.4,298.4,138.5,292.3,132.3z"/>
		<path class="st5" d="M269.1,105.9L269.1,105.9c-6.1-6.1-16-6.1-22.1,0L79.5,273.4c-6.1,6.1-6.1,16,0,22.1l0,0
			c6.1,6.1,16,6.1,22.1,0l167.4-167.4C275.2,122,275.2,112,269.1,105.9z"/>
		<path class="st6" d="M275.6,51.8L275.6,51.8c-6.1-6.1-16-6.1-22.1,0L86,219.2c-6.1,6.1-6.1,16,0,22.1l0,0c6.1,6.1,16,6.1,22.1,0
			L275.6,73.9C281.7,67.8,281.7,57.9,275.6,51.8z"/>
		<path class="st1" d="M292.3-10.6L292.3-10.6c-6.1-6.1-16-6.1-22.1,0L102.7,156.9c-6.1,6.1-6.1,16,0,22.1l0,0
			c6.1,6.1,16,6.1,22.1,0L292.3,11.6C298.4,5.5,298.4-4.4,292.3-10.6z"/>
		<path class="st2" d="M302.5-66.2L302.5-66.2c-6.1-6.1-16-6.1-22.1,0L113,101.2c-6.1,6.1-6.1,16,0,22.1l0,0c6.1,6.1,16,6.1,22.1,0
			L302.5-44.1C308.7-50.2,308.7-60.1,302.5-66.2z"/>
	</g>
</g>
</svg>
