<?xml version="1.0" encoding="utf-8"?>
<!-- Generator: Adobe Illustrator 24.3.0, SVG Export Plug-In . SVG Version: 6.00 Build 0)  -->
<svg version="1.1" id="Layer_1" xmlns="http://www.w3.org/2000/svg" xmlns:xlink="http://www.w3.org/1999/xlink" x="0px" y="0px"
	 viewBox="0 0 546 1196" style="enable-background:new 0 0 546 1196;" xml:space="preserve">
<style type="text/css">
	.st0{fill:#E31E28;}
	.st1{fill:#EC228F;}
	.st2{fill:#F3A21F;}
	.st3{fill:#AD2086;}
	.st4{fill:#88C045;}
	.st5{fill:#00ADB5;}
</style>
<g>
	<path class="st0" d="M449.6,747.9L449.6,747.9c-11.8-11.8-31-11.8-42.8,0L83,1071.7c-11.8,11.8-11.8,31,0,42.8h0
		c11.8,11.8,31,11.8,42.8,0l323.8-323.8C461.4,778.9,461.4,759.7,449.6,747.9z"/>
	<path class="st1" d="M444.8,648.8L444.8,648.8c-11.8-11.8-31-11.8-42.8,0L78.2,972.6c-11.8,11.8-11.8,31,0,42.8l0,0
		c11.8,11.8,31,11.8,42.8,0l323.8-323.8C456.6,679.8,456.6,660.6,444.8,648.8z"/>
	<path class="st2" d="M446.9,555.8L446.9,555.8c-11.8-11.8-31-11.8-42.8,0L80.4,879.5c-11.8,11.8-11.8,31,0,42.8h0
		c11.8,11.8,31,11.8,42.8,0l323.8-323.8C458.8,586.7,458.8,567.6,446.9,555.8z"/>
	<path class="st3" d="M459.6,444.9L459.6,444.9c-11.8-11.8-31-11.8-42.8,0L93,768.6c-11.8,11.8-11.8,31,0,42.8h0
		c11.8,11.8,31,11.8,42.8,0l323.8-323.8C471.4,475.9,471.4,456.7,459.6,444.9z"/>
	<path class="st4" d="M414.6,393.8L414.6,393.8c-11.8-11.8-31-11.8-42.8,0L48.1,717.6c-11.8,11.8-11.8,31,0,42.8l0,0
		c11.8,11.8,31,11.8,42.8,0l323.8-323.8C426.5,424.8,426.5,405.6,414.6,393.8z"/>
	<path class="st5" d="M427.3,289L427.3,289c-11.8-11.8-31-11.8-42.8,0L60.7,612.8c-11.8,11.8-11.8,31,0,42.8h0
		c11.8,11.8,31,11.8,42.8,0l323.8-323.8C439.1,320,439.1,300.9,427.3,289z"/>
	<path class="st0" d="M459.6,168.5L459.6,168.5c-11.8-11.8-31-11.8-42.8,0L93,492.3c-11.8,11.8-11.8,31,0,42.8l0,0
		c11.8,11.8,31,11.8,42.8,0l323.8-323.8C471.4,199.5,471.4,180.4,459.6,168.5z"/>
	<path class="st1" d="M479.4,60.9L479.4,60.9c-11.8-11.8-31-11.8-42.8,0L112.8,384.6c-11.8,11.8-11.8,31,0,42.8l0,0
		c11.8,11.8,31,11.8,42.8,0l323.8-323.8C491.2,91.9,491.2,72.7,479.4,60.9z"/>
</g>
</svg>
