<?xml version="1.0" encoding="utf-8"?>
<!-- Generator: Adobe Illustrator 24.3.0, SVG Export Plug-In . SVG Version: 6.00 Build 0)  -->
<svg version="1.1" id="Layer_1" xmlns="http://www.w3.org/2000/svg" xmlns:xlink="http://www.w3.org/1999/xlink" x="0px" y="0px"
	 viewBox="0 0 75 75" style="enable-background:new 0 0 75 75;" xml:space="preserve">
<style type="text/css">
	.st0{fill:#131011;}
	.st1{fill:#E7AF48;}
	.st2{fill:#FFFFFF;}
	.st3{fill:#88C045;}
	.st4{fill:#1D1D1E;}
	.st5{fill:#FFFAFC;}
	.st6{fill:#E31E28;}
</style>
<path class="st0" d="M13.4,30.7c0.1,0,0.2,0,0.3,0c-0.2,0.1-0.3,0.1-0.5,0C13.3,30.7,13.4,30.7,13.4,30.7z"/>
<path class="st1" d="M12.4,48.4c0.1,0.3,0.1,0.6,0,1C12.4,49.1,12.3,48.7,12.4,48.4z"/>
<g>
	<g>
		<path class="st2" d="M32.6,41.9c1.1,5.8,3.5,10.6,7.2,14.3c2.2,2.2,4.7,3.8,7.5,4.8c3,1.1,6.2,1.3,9.6,0.8
			c1.1-0.2,2.2-0.4,3.4-0.8c4.8-1.5,8.7-4.8,11.7-9.7c0.4-0.8,1.6-3,1.3-5.9c-0.2-1.3-0.7-2.6-1.5-3.7c-0.5-0.8-1-1.4-2-2.4
			c-0.7-0.7-1.1-1.3-1.5-1.6c-0.7-0.6-2.8-2.7-6-2.2c-2.8,0.4-4.2,2.3-5.6,4.1c-0.4,0.5-0.8,0.8-0.9,1.1l-0.3,0.1
			c-0.4,0.4-0.7,0.5-1,0.6c-0.4,0.1-0.7,0-0.9-0.1c-0.1,0-0.3-0.1-0.6-0.4c-0.7-0.9-1.2-2.2-1.5-4l0-0.2c-0.2-1.6,0-2.9,0.4-3.9
			c0.2-0.4,0.4-0.8,1.4-0.9c0.5-0.1,0.8,0.1,0.9,0.1c0.1,0.1,0.5,0.2,1.2,0.9c0.4,0.3,0.8,0.6,1.2,1c0.7,0.4,2.8,2,5.5,1.5
			c4-0.6,5.5-4.1,6.5-6.5s1.7-4.4,1.4-6.7c-0.2-1.8-1.1-3.6-2.5-5l-0.1-0.2c-0.3-0.3-0.5-0.4-0.9-0.7L66.4,16
			c-4.1-3.6-9.1-5.2-14.8-4.5l-0.3,0c-0.3,0-0.6,0-0.9,0c-6.5,1-11.7,4.6-15,10.5c-0.4,0.7-0.8,1.5-1.2,2.2
			c-2.1,4.8-2.8,10-2.1,15.7C32.3,40.6,32.5,41.2,32.6,41.9z"/>
		<path class="st3" d="M69.1,45.8c-0.1-0.6-0.2-1.1-0.7-1.8c-0.3-0.5-0.9-1.1-1.7-1.9c-0.6-0.6-1-1.1-1.3-1.3
			c-0.6-0.5-1.4-1.4-2.8-1.2c-1.2,0.2-1.8,1-2.9,2.5c-0.7,0.9-1.3,1.6-1.9,2l0,0c-0.9,0.8-1.8,1.2-2.8,1.3c-0.9,0.1-1.8,0.1-2.5-0.2
			c-0.9-0.3-1.7-0.8-2.5-1.6c-1.3-1.5-2.2-3.7-2.5-6.3c-0.3-2.7-0.1-4.9,0.8-6.8c0.9-1.9,2.3-2.8,4.4-3.1c1.1-0.2,2.1,0,3,0.4
			c0.6,0.2,1.3,0.7,2.2,1.4c0.3,0.2,0.6,0.5,0.9,0.7c0.9,0.6,1.7,1,2.7,0.8c1.8-0.3,2.5-1.9,3.4-4c0.9-2.3,1.2-3.3,1.1-4.3
			c-0.1-0.8-0.5-1.7-1.3-2.5c-0.3-0.4-0.5-0.5-0.9-0.8c-3.2-2.8-7.1-4-11.8-3.5c-0.3,0-0.6,0.1-0.9,0.1c-5.4,0.8-9.4,3.6-12.2,8.3
			c-0.3,0.7-0.7,1.2-1,1.9c-1.7,4-2.3,8.3-1.7,13.2c0.1,0.6,0.2,1.1,0.3,1.7c0.9,4.8,2.9,8.9,6,11.9c1.8,1.8,3.9,3.1,6,3.9
			c2.4,0.9,5,1.1,7.9,0.7c1-0.2,2-0.4,2.8-0.7c3.8-1.3,7-3.8,9.4-7.8C68.8,48.1,69.3,47,69.1,45.8z"/>
		<path class="st4" d="M56.8,58.1c-2.9,0.4-5.6,0.2-8.1-0.7c-2.2-0.8-4.3-2.2-6.2-3.9c-3.1-3.2-5.2-7.3-6.1-12.3
			c-0.2-0.5-0.2-1.1-0.3-1.6c-0.6-5-0.1-9.5,1.7-13.5c0.4-0.8,0.7-1.4,1-2c2.8-5,7-7.9,12.5-8.7c0.3,0,0.5-0.1,0.7-0.1l0.4,0.1
			c4.7-0.5,8.8,0.7,12.1,3.7l0.2,0.2c0.2,0.2,0.4,0.4,0.6,0.5c0.9,1,1.4,1.9,1.5,3c0.1,1.1-0.1,2.1-1.2,4.6c-0.9,2.1-1.7,4-3.7,4.3
			c-1.3,0.2-2.3-0.5-3.1-1c-0.3-0.2-0.6-0.4-1-0.7c-0.7-0.7-1.4-1.1-2-1.4c-0.9-0.4-1.8-0.5-2.7-0.3c-2,0.3-3.2,1.2-4.1,2.8
			c-0.8,1.8-1.1,3.9-0.8,6.5c0.4,2.6,1.2,4.6,2.4,6c0.7,0.7,1.4,1.2,2.2,1.5c0.7,0.2,1.5,0.2,2.3,0.1c1-0.2,1.8-0.5,2.6-1.1
			c0,0,0.1-0.1,0.1-0.1c0.5-0.4,1.1-1,1.7-1.9c1.2-1.5,1.9-2.5,3.3-2.7c1.6-0.2,2.6,0.8,3.1,1.3c0.3,0.4,0.8,0.8,1.4,1.5
			c0.8,0.9,1.4,1.5,1.8,2c0.5,0.7,0.7,1.2,0.8,1.9c0.2,1.5-0.5,2.8-0.8,3.3c-2.4,4-5.7,6.7-9.7,8C58.6,57.7,57.7,58,56.8,58.1z
			 M51.5,16.6c-5.2,0.8-9.1,3.5-11.8,8.2c-0.3,0.6-0.6,1.1-0.9,1.9c-1.7,3.8-2.2,8.1-1.6,12.8c0.1,0.5,0.1,1,0.2,1.6
			c0.9,4.8,2.8,8.7,5.9,11.6c1.7,1.7,3.7,3,5.8,3.8c2.3,0.8,4.9,1,7.6,0.6c0.8-0.1,1.7-0.4,2.7-0.7c3.8-1.2,6.8-3.7,9.1-7.5
			c0.4-0.7,0.8-1.6,0.6-2.6c-0.1-0.5-0.2-0.9-0.6-1.4c-0.4-0.6-0.9-1.1-1.7-2c-0.6-0.5-1-1-1.3-1.3c-0.5-0.4-1.2-1.2-2.3-1
			c-1,0.2-1.5,0.8-2.6,2.2c-0.7,0.9-1.4,1.7-2.1,2.2c0,0-0.1,0-0.1,0.1c-1.7,1.3-3.9,1.7-5.7,1.2c-1-0.4-1.9-1-2.7-1.9
			c-1.4-1.7-2.2-3.8-2.6-6.6c-0.4-2.8-0.1-5.2,0.8-7.1c1-2,2.6-3.1,4.8-3.4c1.1-0.2,2.2,0,3.2,0.4c0.7,0.3,1.5,0.8,2.3,1.5
			c0.3,0.3,0.6,0.5,0.9,0.7c0.9,0.7,1.6,0.9,2.4,0.8c1.5-0.2,2.1-1.6,2.9-3.6c0.9-2.2,1.2-3.2,1.1-4s-0.5-1.5-1.2-2.2
			c-0.2-0.3-0.4-0.5-0.6-0.5l-0.3-0.3c-3.1-2.7-6.9-3.8-11.4-3.4l-0.3-0.1C51.9,16.5,51.7,16.5,51.5,16.6z"/>
		<path class="st4" d="M56.3,57.8c-2.8,0.4-5.5,0.2-8-0.7c-2.3-0.8-4.3-2.1-6.2-3.9c-3.2-3.1-5.2-7.3-6.1-12.3
			c-0.1-0.6-0.2-1.1-0.3-1.7c-0.6-5-0.1-9.4,1.7-13.5c0.3-0.7,0.6-1.3,1-1.9c2.8-5,7-7.9,12.5-8.7c0.2,0,0.5-0.1,0.7-0.1l0.3-0.1
			c4.8-0.4,8.8,0.8,12.1,3.8l0.2,0.2c0.2,0.2,0.4,0.4,0.6,0.5c0.9,1,1.3,1.9,1.5,2.9c0.2,1.2-0.1,2.2-1.2,4.6
			c-0.9,2.2-1.7,4.1-3.7,4.4c-1.3,0.2-2.3-0.5-3-1c-0.3-0.3-0.6-0.5-1-0.8c-0.8-0.6-1.4-1-2-1.2c-0.9-0.4-1.8-0.6-2.8-0.4
			c-1.9,0.3-3.2,1.2-4,2.9c-0.9,1.8-1.1,3.9-0.8,6.5c0.3,2.6,1.1,4.6,2.4,6c0.7,0.7,1.4,1.2,2.2,1.5c0.7,0.2,1.5,0.2,2.3,0.1
			c0.9-0.1,1.8-0.5,2.6-1.2l0.1,0c0.5-0.4,1.1-1,1.8-1.9c1.1-1.6,1.8-2.4,3.3-2.7c1.6-0.2,2.6,0.7,3.2,1.3c0.3,0.4,0.8,0.8,1.3,1.5
			c0.9,0.9,1.4,1.5,1.8,2c0.5,0.7,0.7,1.2,0.8,1.9c0.2,1.5-0.5,2.8-0.8,3.2c-2.4,4.1-5.6,6.8-9.7,8C58.2,57.4,57.2,57.6,56.3,57.8z
			 M51,16.2c-5.2,0.8-9.1,3.5-11.8,8.2c-0.3,0.6-0.6,1.1-0.9,1.8C36.6,30,36,34.3,36.7,39c0.1,0.6,0.2,1.1,0.3,1.7
			c0.9,4.7,2.8,8.7,5.8,11.6c1.8,1.7,3.7,3,5.8,3.7c2.3,0.8,4.9,1,7.6,0.6c0.8-0.1,1.8-0.3,2.8-0.6c3.7-1.3,6.8-3.8,9-7.5
			c0.4-0.8,0.8-1.6,0.7-2.6c-0.1-0.5-0.2-0.9-0.6-1.5c-0.3-0.5-0.8-1-1.6-1.9c-0.6-0.5-1-1.1-1.3-1.3c-0.5-0.4-1.2-1.2-2.4-1
			c-1,0.2-1.5,0.7-2.5,2.1c-0.7,1-1.4,1.8-2.1,2.3l-0.1,0c-1.6,1.4-4,1.7-5.7,1.2c-1-0.3-1.9-0.8-2.7-1.8c-1.4-1.7-2.3-3.8-2.7-6.6
			c-0.4-2.8,0-5.2,0.9-7.1c1-2,2.5-3.1,4.8-3.4c1.2-0.2,2.2-0.1,3.3,0.3c0.7,0.3,1.5,0.8,2.3,1.5c0.3,0.3,0.6,0.5,0.9,0.7
			c1,0.7,1.7,0.9,2.4,0.8c1.5-0.2,2.1-1.7,2.9-3.6c0.9-2.3,1.2-3.2,1.1-4.1c-0.1-0.7-0.5-1.5-1.2-2.2c-0.2-0.2-0.4-0.4-0.6-0.5
			l-0.3-0.2c-3-2.8-6.9-3.9-11.4-3.5l-0.3,0C51.4,16.2,51.2,16.2,51,16.2z"/>
		<path class="st5" d="M49.6,21.9c8.6-2.2,9.9,2.8,12,3c0.6,0.1,1-2.4-4.2-4.4C50.9,17.9,47.5,22.5,49.6,21.9z"/>
	</g>
	<g>
		<path class="st2" d="M35.9,39c-0.7,0.1-1.5,0.5-2.5,0.7c-0.2,0.2-0.4,0.2-0.5,0.2l0,0c-1.6,0.5-3.8,0.8-6.3,1.3
			c0-0.6-0.1-1.3-0.2-2.1l-0.6-4.5c-0.1-0.5-0.1-0.9-0.2-1.6c-0.2-1.8-0.4-4.1-0.7-6.9c-0.2-1.6-0.4-3.2-0.5-4.6
			c-0.2-1.8-0.4-3.3-0.5-4.5c-0.6-4.9-4.8-8.2-9.4-7.6l-5.7,0.8c-4.7,0.7-7.8,5.1-7.2,10c0.2,1.9,0.7,4.7,1.2,8.1l0.3,1.8
			C4,35,4.4,37.7,4.7,39.5l0.1,0.6c0.2,1.8,0.5,4.6,0.9,8.2c0.1,1.2,0.2,2.1,0.3,3.1c0.2,2.6,0.5,4.7,0.7,6.3c0.6,5,4.7,8.4,9.4,7.7
			c1.3-0.2,3.1-0.4,5.5-0.8l1.7-0.4c1.5-0.2,2.6-0.4,3.5-0.5c1.3-0.2,3.5-0.4,5.3-0.7c2.8-0.2,4.8-0.4,6.1-0.6c4-0.6,7.1-4,7.4-8.3
			c0.2-1.8,0.1-4-0.3-7.3l0-0.2C44.5,41.7,40.4,38.3,35.9,39z"/>
		<path class="st6" d="M24.5,56c-0.8,0.8-1.5,1.8-2.1,3.1c1.5-0.2,2.7-0.5,3.6-0.7c1.2-0.2,3-0.3,5.5-0.6c2.6-0.2,4.5-0.3,5.9-0.5
			c1.9-0.3,3.3-1.9,3.5-4c0.1-1.4,0.1-3.3-0.3-6c-1.3,1.1-2.8,1.9-4.7,2.3C32,50.7,27.2,52.7,24.5,56z"/>
		<path class="st6" d="M36.4,43.7c-0.5,0.1-1,0.3-1.7,0.5c-0.7,0.2-0.9,0.2-0.9,0.2c-2.6,0.6-6.4,1.4-11.2,2.1l0,0
			c-0.5,0.4-0.9,0.7-1.5,0.9c-1.3,0.4-2.9,0-4.3-0.1c-1.5,0.2-3.2,0.9-4.5,1.8c-0.7,0.5-1.3,0.9-1.9,1.5c0.3,2.5,0.5,4.6,0.7,6.1
			c0.3,2.4,2.2,3.9,4.3,3.5c1.2-0.2,3.1-0.6,5.4-0.9c0.6-0.1,1.2-0.2,1.7-0.2c0.6-1.2,1.3-2.3,2.1-3.1c2.8-3.3,7.5-5.3,11.4-6.3
			c1.8-0.4,3.4-1.2,4.7-2.3c0-0.1,0-0.2,0-0.3C40.2,44.9,38.5,43.4,36.4,43.7z"/>
		<path class="st6" d="M19.8,22c-0.1-1.8-0.3-3.3-0.5-4.5c-0.3-2.3-2.1-3.6-4.3-3.3C14.7,14.2,9.8,15,9.4,15
			c-2.2,0.3-3.6,2.3-3.3,4.6c0.2,1.8,0.7,4.4,1.2,7.8c1.8-1,3.8-1.7,5.7-2.7C15.2,23.9,17.5,23.1,19.8,22z"/>
		<path class="st6" d="M16.8,47.4c1.4,0,3,0.5,4.3,0.1c0.6-0.2,1-0.5,1.5-0.9c-0.1-0.7-0.2-1.6-0.4-2.7c-0.1-0.9-0.3-2.4-0.5-4.3
			l-0.5-4.3c-0.1-0.5-0.1-1.1-0.2-1.7c-1,0.5-2.1,1-3.3,1.2c-1.5,0.2-2.9-0.2-4.4,0.9c-0.8,0.6-1.6,1.4-2.4,2.1
			c-0.6,0.4-1.2,1-1.6,1.6c0.2,1.9,0.6,4.8,0.9,8.4c0.1,1,0.2,2.1,0.3,3.1c0.6-0.6,1.2-1,1.9-1.5C13.5,48.3,15.2,47.6,16.8,47.4z"/>
		<path class="st6" d="M13.1,35.5c1.5-1,2.9-0.6,4.4-0.8c1.2-0.2,2.3-0.7,3.3-1.2c-0.2-1.8-0.4-4.1-0.6-7c-0.1-1.6-0.3-3.2-0.4-4.5
			c-2.2,1.1-4.6,1.9-6.8,2.7c-1.9,1-3.9,1.7-5.7,2.6c0.1,0.6,0.2,1.1,0.3,1.8c0.6,4.1,1.1,7.3,1.3,9.3C9,38.7,9,39,9,39.2
			c0.5-0.6,1-1.2,1.6-1.6C11.5,36.9,12.4,36.1,13.1,35.5z"/>
		<path class="st4" d="M37.9,58.3c-1.3,0.2-3.2,0.4-5.9,0.6c-2.8,0.3-4.5,0.4-5.5,0.6c-0.9,0.1-2,0.3-3.6,0.7l-1.6,0.2
			c-2.4,0.3-4.2,0.6-5.4,0.8c-2.4,0.4-4.6-1.4-4.9-3.9c-0.2-1.6-0.4-3.7-0.7-6.2c-0.1-1-0.2-2.1-0.3-3.1c-0.3-3.8-0.6-6.5-0.9-8.4
			L9,39c-0.2-1.8-0.6-4.6-1.4-9.3l-0.3-1.8C6.7,24.6,6.3,22,6,20c-0.3-2.6,1.3-4.9,3.8-5.2l5.7-0.9c2.4-0.4,4.5,1.3,4.9,3.8
			c0.1,1.1,0.3,2.8,0.5,4.5c0.1,1.4,0.3,2.9,0.4,4.5c0.3,2.9,0.5,5.3,0.7,7c0.1,0.7,0.1,1.3,0.2,1.7l0.5,4.3c0.3,2,0.4,3.4,0.5,4.3
			c0.1,0.9,0.2,1.6,0.3,2.2c4.4-0.8,8-1.4,10.5-2c0.1,0,0.3,0,0.9-0.2c0.8-0.3,1.3-0.4,1.8-0.5c2.4-0.4,4.5,1.3,4.8,3.8l0.1,0.5
			c0.3,2.7,0.4,4.7,0.3,6.1C41.8,56.3,40.2,58,37.9,58.3z M26.4,58.3c1.1-0.2,2.8-0.3,5.6-0.6c2.7-0.2,4.5-0.4,5.8-0.6
			c1.7-0.2,2.9-1.6,3-3.3c0.2-1.3,0-3.1-0.2-5.8l-0.1-0.5c-0.2-1.9-1.8-3.1-3.5-2.8c-0.4,0-0.8,0.2-1.6,0.5c-0.7,0.3-1,0.4-1,0.4
			c-2.6,0.6-6.4,1.3-11.2,2.1c-0.1-0.1-0.3-0.1-0.4-0.2c-0.1-0.1-0.2-0.2-0.2-0.4c-0.1-0.7-0.2-1.6-0.4-2.7
			c-0.1-0.9-0.3-2.3-0.5-4.3l-0.5-4.3c-0.1-0.5-0.1-1-0.2-1.7c-0.2-1.8-0.4-4.1-0.7-7c-0.1-1.6-0.3-3.2-0.5-4.5
			c-0.2-1.8-0.3-3.3-0.5-4.5c-0.2-1.8-1.8-3-3.6-2.7L10,16.1c-1.8,0.3-3,1.8-2.8,3.8s0.6,4.6,1.2,7.8l0.2,1.8
			c0.8,4.8,1.3,7.5,1.5,9.3l0.1,0.7c0.2,1.9,0.5,4.7,0.9,8.5c0.1,1,0.2,2.1,0.3,3c0.3,2.5,0.5,4.6,0.7,6.2c0.2,1.9,1.8,3.2,3.7,2.9
			c1.2-0.2,3-0.5,5.3-0.9l1.7-0.2C24.3,58.6,25.5,58.4,26.4,58.3z"/>
		<path class="st4" d="M37.4,57.9c-1.3,0.2-3.2,0.4-5.9,0.6c-2.8,0.2-4.4,0.4-5.5,0.6c-0.9,0.1-2.1,0.3-3.6,0.5l-1.7,0.4
			c-2.3,0.3-4.2,0.6-5.4,0.8c-2.4,0.4-4.6-1.4-4.9-4c-0.2-1.5-0.4-3.5-0.7-6.2c-0.1-0.9-0.1-2-0.3-3c-0.4-3.8-0.6-6.5-0.9-8.4
			l-0.1-0.7c-0.2-1.8-0.7-4.5-1.5-9.3l-0.3-1.8c-0.6-3.3-1-6-1.2-7.8c-0.3-2.6,1.3-5,3.8-5.3l5.7-0.8c2.5-0.4,4.6,1.4,4.9,3.9
			c0.1,1.1,0.3,2.6,0.5,4.5c0.1,1.3,0.3,2.9,0.4,4.5c0.3,2.9,0.5,5.1,0.7,7c0,0.6,0.1,1.3,0.2,1.7l0.5,4.3c0.2,1.9,0.4,3.4,0.5,4.3
			c0.1,0.9,0.2,1.6,0.3,2c4.4-0.7,8-1.3,10.6-1.9c0.1,0,0.3-0.2,0.9-0.3c0.7-0.3,1.3-0.5,1.8-0.6c2.4-0.4,4.5,1.3,4.8,3.9l0,0.3
			c0.4,2.8,0.4,4.8,0.2,6.1C41.2,55.9,39.7,57.6,37.4,57.9z M25.9,57.9c1.1-0.2,2.8-0.4,5.5-0.6c2.7-0.2,4.6-0.5,5.9-0.6
			c1.7-0.2,2.8-1.6,3-3.3c0.2-1.3,0-3.1-0.3-5.9l0-0.3c-0.2-1.9-1.7-3.1-3.5-2.8c-0.4,0.1-0.9,0.2-1.6,0.5c-0.7,0.2-1,0.4-1,0.4
			c-2.7,0.6-6.4,1.3-11.2,2c-0.2,0-0.3,0-0.4,0S22,46.9,22,46.6c-0.1-0.7-0.2-1.6-0.4-2.7c-0.1-0.9-0.3-2.4-0.5-4.3l-0.5-4.3
			c-0.1-0.5-0.1-1.2-0.2-1.7c-0.2-1.8-0.4-4.2-0.7-7c-0.2-1.7-0.3-3.2-0.4-4.5c-0.2-1.8-0.4-3.3-0.5-4.5c-0.2-1.8-1.8-3.1-3.6-2.8
			l-5.7,0.8c-1.9,0.3-3,2-2.8,3.9c0.2,1.8,0.6,4.4,1.2,7.9l0.3,1.8c0.8,4.6,1.2,7.5,1.5,9.3l0.1,0.7c0.2,1.8,0.5,4.6,0.9,8.3
			c0.1,1,0.2,2.1,0.3,3.1c0.2,2.5,0.5,4.6,0.7,6.1c0.2,1.9,1.8,3.3,3.6,3.1c1.2-0.2,3.1-0.6,5.4-0.9l1.7-0.4
			C23.8,58.2,25,58,25.9,57.9z"/>
		<path class="st5" d="M14.2,19.7c0.5,0,3.2-0.5,2.9-1.5c-0.4-1.1-10.2-1.7-8,5.4C9.4,25,9.5,19.5,14.2,19.7z"/>
	</g>
</g>
</svg>
